<?xml version="1.0" encoding="UTF-8" standalone="no"?>
<!DOCTYPE svg PUBLIC "-//W3C//DTD SVG 1.1//EN" "http://www.w3.org/Graphics/SVG/1.1/DTD/svg11.dtd">
<svg width="100%" height="100%" viewBox="0 0 800 800" version="1.1" xmlns="http://www.w3.org/2000/svg" xmlns:xlink="http://www.w3.org/1999/xlink" xml:space="preserve" xmlns:serif="http://www.serif.com/" style="fill-rule:evenodd;clip-rule:evenodd;stroke-linejoin:round;stroke-miterlimit:2;">
    <g transform="matrix(1,0,0,1,400,400)">
        <g transform="matrix(1,0,0,1,-400,-400)">
            <clipPath id="_clip1">
                <rect x="0" y="0" width="800" height="800"/>
            </clipPath>
            <g clip-path="url(#_clip1)">
                <g transform="matrix(1.5625,0,0,1.5625,0,0)">
                    <g>
                        <path d="M447.996,192C439.207,192 431.057,194.667 424.273,199.211C418.428,182.614 402.577,170.667 383.996,170.667C375.207,170.667 367.057,173.334 360.273,177.878C354.428,161.281 338.577,149.334 319.996,149.334C312.231,149.334 304.935,151.425 298.641,155.073L298.641,147.265C379.942,140.46 443.537,114.497 487.633,69.313C490.556,66.305 491.452,61.825 489.894,57.921C488.337,54.017 484.625,51.372 480.401,51.222C454.737,50.219 436.518,38.123 417.233,25.302C398.524,12.864 379.196,0 354.001,0C324.134,0 304.657,10.24 290.449,17.749C282.684,7.04 270.161,0 255.974,0C241.787,0 229.265,7.04 221.521,17.728C207.292,10.219 187.836,0 157.99,0C132.817,0 113.467,12.864 94.758,25.28C75.473,38.101 57.254,50.219 31.59,51.2C27.366,51.371 23.803,54.187 22.246,58.091C21.905,58.966 22.139,59.904 22.033,60.822C21.777,61.59 21.436,62.315 21.372,63.169C20.945,68.524 24.615,73.089 29.692,74.241C73.255,116.182 134.951,140.694 213.308,147.265L213.308,316.225C213.308,318.636 211.708,319.66 210.748,320.065C209.809,320.492 207.975,320.876 206.225,319.169L188.86,301.804C161.169,274.113 116.135,274.113 88.444,301.804C84.284,305.964 84.284,312.727 88.444,316.887L240.678,469.12C268.348,496.768 305.126,512 344.23,512C424.977,512 490.662,446.315 490.662,365.568L490.662,234.667C490.662,211.136 471.526,192 447.996,192ZM298.662,126.08L298.662,85.227C340.603,84.416 410.15,79.36 446.523,76.544C408.721,104.085 359.27,120.789 298.662,126.08ZM300.326,36.629C313.937,29.461 329.361,21.333 354.001,21.333C372.753,21.333 387.9,31.402 405.436,43.05C412.241,47.573 419.431,52.266 427.111,56.597C389.159,59.413 333.692,63.168 298.663,63.872L298.663,42.667C298.663,41.003 298.556,39.339 298.343,37.675C299.004,37.333 299.644,36.971 300.326,36.629ZM106.556,43.072C124.092,31.403 139.239,21.333 157.991,21.333C182.631,21.333 198.055,29.461 211.687,36.65C212.348,36.991 213.01,37.333 213.65,37.674C213.458,39.146 213.394,40.597 213.373,42.069C213.373,42.282 213.309,42.453 213.309,42.666L213.309,63.893C178.6,63.253 124.136,59.861 84.05,57.088C92.07,52.651 99.494,47.765 106.556,43.072ZM66.513,77.269C107.046,80.17 172.86,84.501 213.308,85.226L213.308,126.079C153.382,120.853 104.337,104.448 66.513,77.269ZM469.329,365.568C469.329,434.56 413.222,490.667 344.23,490.667C310.822,490.667 279.398,477.654 255.782,454.038L111.889,310.144C130.705,298.069 157.585,300.672 173.798,316.885L191.163,334.25C198.48,341.567 209.424,343.765 218.939,339.775C228.475,335.807 234.662,326.57 234.662,316.223L234.662,42.667C234.662,30.912 244.241,21.334 255.995,21.334C267.749,21.334 277.328,30.913 277.328,42.667L277.328,245.334C277.328,251.222 282.107,256.001 287.995,256.001C293.883,256.001 298.662,251.222 298.662,245.334L298.662,192C298.662,180.245 308.241,170.667 319.995,170.667C331.749,170.667 341.328,180.246 341.328,192L341.328,224C341.328,229.888 346.107,234.667 351.995,234.667C357.883,234.667 362.662,229.888 362.662,224L362.662,213.333C362.662,201.578 372.241,192 383.995,192C395.75,192 405.328,201.579 405.328,213.333L405.328,234.666C405.328,240.554 410.107,245.333 415.995,245.333C421.883,245.333 426.662,240.554 426.662,234.666C426.662,222.911 436.241,213.333 447.995,213.333C459.75,213.333 469.328,222.912 469.328,234.666L469.328,365.568L469.329,365.568Z" style="fill:rgb(190,186,155);fill-rule:nonzero;stroke:rgb(190,186,155);stroke-width:0.64px;"/>
                    </g>
                </g>
            </g>
        </g>
    </g>
</svg>
