<?xml version="1.0" encoding="UTF-8" standalone="no"?>
<!DOCTYPE svg PUBLIC "-//W3C//DTD SVG 1.1//EN" "http://www.w3.org/Graphics/SVG/1.1/DTD/svg11.dtd">
<svg width="100%" height="100%" viewBox="0 0 800 800" version="1.1" xmlns="http://www.w3.org/2000/svg" xmlns:xlink="http://www.w3.org/1999/xlink" xml:space="preserve" xmlns:serif="http://www.serif.com/" style="fill-rule:evenodd;clip-rule:evenodd;stroke-linejoin:round;stroke-miterlimit:2;">
    <g transform="matrix(1,0,0,1,400,400)">
        <g transform="matrix(1,0,0,1,-400,-400)">
            <clipPath id="_clip1">
                <rect x="0" y="0" width="800" height="800"/>
            </clipPath>
            <g clip-path="url(#_clip1)">
                <g transform="matrix(6.510417,0,0,6.510417,0,36.393229)">
                    <path d="M25.66,19.3C25.26,19.7 24.73,19.9 24.21,19.9C23.68,19.9 23.16,19.7 22.76,19.3C22.36,18.9 22.16,18.37 22.16,17.85C22.16,17.32 22.36,16.8 22.76,16.4C23.49,15.67 23.7,15.01 23.62,14.38C23.54,13.69 23.15,12.95 22.72,12.16C21.98,10.77 21.18,9.29 20.93,7.49C20.67,5.67 20.97,3.58 22.44,1.04L22.45,1C22.73,0.53 23.18,0.21 23.67,0.07C24.17,-0.07 24.73,-0.01 25.22,0.27C25.71,0.55 26.04,1.01 26.18,1.51C26.32,2.01 26.26,2.57 25.98,3.06C25.08,4.63 24.91,5.93 25.08,7.07C25.26,8.22 25.81,9.25 26.33,10.21C27.1,11.64 27.81,12.97 27.9,14.44C28,15.95 27.45,17.51 25.66,19.3ZM14.09,42.76L108.6,42.76C108.98,42.76 109.35,42.84 109.69,42.98C110.02,43.12 110.31,43.31 110.57,43.55C110.59,43.56 110.61,43.58 110.63,43.6C111.15,44.12 111.47,44.83 111.47,45.62L111.47,51.99L120.83,51.99C121.4,51.99 121.91,52.22 122.28,52.59C122.65,52.96 122.88,53.48 122.88,54.04C122.88,54.61 122.65,55.12 122.28,55.49L122.25,55.52C121.88,55.87 121.38,56.09 120.83,56.09L111.47,56.09L111.47,98.19C111.47,100.01 111.1,101.75 110.44,103.34C109.75,104.99 108.75,106.48 107.51,107.72C106.27,108.96 104.78,109.97 103.13,110.65C101.54,111.31 99.8,111.68 97.98,111.68L24.73,111.68C22.91,111.68 21.17,111.31 19.58,110.65C17.93,109.96 16.44,108.96 15.2,107.71C13.96,106.47 12.95,104.98 12.26,103.33C11.6,101.74 11.23,100 11.23,98.18L11.23,56.11L2.06,56.11C1.49,56.11 0.98,55.88 0.61,55.51C0.23,55.13 0,54.62 0,54.05C0,53.48 0.23,52.97 0.6,52.6C0.97,52.23 1.49,52 2.05,52L11.23,52L11.23,45.63C11.23,45.25 11.31,44.88 11.45,44.54C11.6,44.19 11.81,43.87 12.07,43.61C12.59,43.09 13.31,42.76 14.09,42.76ZM107.36,46.88L15.35,46.88L15.35,98.2C15.35,99.47 15.6,100.67 16.06,101.78C16.54,102.93 17.24,103.96 18.11,104.83C18.98,105.7 20.01,106.4 21.16,106.88C22.26,107.34 23.47,107.59 24.74,107.59L97.99,107.59C99.25,107.59 100.46,107.34 101.56,106.88C102.7,106.4 103.74,105.7 104.61,104.84C105.48,103.97 106.18,102.94 106.65,101.79C107.11,100.69 107.36,99.48 107.36,98.22L107.36,46.88ZM20.06,53.85C20.06,53.28 20.29,52.77 20.66,52.4C21.03,52.03 21.55,51.8 22.11,51.8C22.68,51.8 23.19,52.03 23.56,52.4C23.93,52.77 24.16,53.29 24.16,53.85L24.16,80.94C24.16,81.51 23.93,82.02 23.56,82.39C23.19,82.76 22.67,82.99 22.11,82.99C21.54,82.99 21.03,82.76 20.66,82.39L20.63,82.36C20.28,81.99 20.06,81.49 20.06,80.94L20.06,53.85ZM40.3,25.44C36.76,25.95 33.58,26.6 30.76,27.37C27.93,28.15 25.44,29.06 23.3,30.1C21.8,30.83 20.47,31.62 19.32,32.47C18.51,33.06 17.79,33.69 17.15,34.34L105.58,34.34C104.99,33.72 104.31,33.13 103.55,32.57C102.44,31.76 101.15,31.01 99.69,30.33C97.61,29.35 95.19,28.51 92.48,27.77C89.75,27.03 86.73,26.42 83.47,25.91C81.99,25.68 80.49,25.47 78.98,25.28L78.96,25.28C77.47,25.09 75.97,24.93 74.45,24.78C72.96,24.64 71.45,24.51 69.91,24.41C68.39,24.31 66.88,24.23 65.38,24.17C64.81,24.15 64.31,23.9 63.95,23.52C63.59,23.14 63.38,22.62 63.4,22.05L63.4,22.04C63.41,21.71 63.5,21.4 63.65,21.13C63.8,20.85 64.02,20.62 64.28,20.43C64.6,20.19 64.9,19.92 65.16,19.61C65.42,19.31 65.64,18.97 65.82,18.62C66,18.27 66.14,17.9 66.23,17.49C66.32,17.1 66.37,16.7 66.37,16.28C66.37,15.58 66.23,14.92 65.98,14.32C65.72,13.7 65.34,13.13 64.87,12.66C64.4,12.19 63.83,11.8 63.21,11.55C62.61,11.3 61.95,11.16 61.25,11.16C60.55,11.16 59.89,11.3 59.29,11.55C58.66,11.81 58.1,12.19 57.63,12.67C57.16,13.14 56.77,13.71 56.52,14.33C56.27,14.93 56.13,15.59 56.13,16.29C56.13,16.7 56.18,17.1 56.26,17.48C56.35,17.87 56.49,18.25 56.66,18.59C56.84,18.94 57.06,19.28 57.31,19.58C57.57,19.89 57.86,20.17 58.18,20.4C58.63,20.74 58.91,21.23 58.98,21.75C59.05,22.27 58.93,22.82 58.59,23.27C58.39,23.53 58.15,23.73 57.88,23.87C57.62,24 57.33,24.08 57.04,24.09L56.94,24.09C55.57,24.12 54.17,24.17 52.76,24.24C51.37,24.31 49.96,24.4 48.51,24.52C47.11,24.63 45.72,24.76 44.36,24.92C42.99,25.07 41.64,25.24 40.3,25.44ZM21.51,26.4C23.85,25.27 26.54,24.28 29.59,23.44C32.62,22.6 36,21.91 39.72,21.37C41.11,21.17 42.51,20.99 43.92,20.83C45.35,20.67 46.76,20.53 48.18,20.42C49.05,20.35 49.96,20.29 50.89,20.23C51.53,20.19 52.19,20.16 52.85,20.13C52.6,19.58 52.4,19 52.26,18.41C52.1,17.73 52.01,17.02 52.01,16.29C52.01,15.04 52.26,13.85 52.71,12.76C53.18,11.63 53.87,10.61 54.72,9.76C55.57,8.91 56.59,8.22 57.72,7.76C58.81,7.31 60,7.06 61.25,7.06C62.5,7.06 63.69,7.31 64.78,7.76C65.91,8.23 66.93,8.92 67.78,9.76C68.63,10.61 69.32,11.63 69.79,12.76C70.24,13.85 70.49,15.04 70.49,16.29C70.49,17.03 70.4,17.75 70.23,18.45C70.08,19.08 69.86,19.69 69.58,20.27C70.34,20.32 71.08,20.37 71.8,20.43C72.77,20.5 73.78,20.59 74.82,20.69C76.37,20.84 77.91,21.01 79.46,21.21C81.01,21.4 82.55,21.62 84.08,21.86C87.55,22.4 90.74,23.06 93.62,23.84C96.52,24.63 99.13,25.55 101.41,26.62C103.79,27.73 105.82,29.01 107.46,30.47C109.12,31.94 110.38,33.59 111.23,35.44C111.3,35.58 111.36,35.73 111.4,35.9C111.44,36.06 111.46,36.22 111.46,36.39C111.46,36.96 111.23,37.47 110.86,37.84L110.83,37.87C110.46,38.22 109.96,38.44 109.41,38.44L13.09,38.44C13.05,38.44 13.02,38.44 12.99,38.43C12.86,38.42 12.72,38.4 12.6,38.37C12.46,38.33 12.32,38.28 12.18,38.21C12.15,38.2 12.12,38.18 12.09,38.16C11.62,37.89 11.29,37.46 11.14,36.97C10.99,36.48 11.02,35.94 11.27,35.46C11.28,35.43 11.3,35.4 11.32,35.37C12.3,33.56 13.63,31.9 15.33,30.4C17.02,28.92 19.08,27.58 21.51,26.4ZM81.61,16.39C82.01,16.79 82.21,17.32 82.21,17.84C82.21,18.37 82.01,18.89 81.61,19.29C81.21,19.69 80.68,19.89 80.16,19.89C79.63,19.89 79.11,19.69 78.71,19.29C76.92,17.5 76.37,15.94 76.46,14.44C76.55,12.97 77.27,11.64 78.03,10.21C79.03,8.33 80.18,6.19 78.38,3.06L78.36,3.02C78.09,2.54 78.04,1.99 78.18,1.5C78.32,0.99 78.65,0.54 79.14,0.26C79.63,-0.02 80.19,-0.08 80.69,0.06C81.2,0.2 81.65,0.53 81.93,1.02C83.4,3.56 83.7,5.65 83.44,7.46C83.18,9.26 82.39,10.75 81.65,12.13C80.85,13.65 80.16,14.94 81.61,16.39ZM97.11,16.39C97.51,16.79 97.71,17.32 97.71,17.84C97.71,18.37 97.51,18.89 97.11,19.29C96.71,19.69 96.18,19.89 95.66,19.89C95.13,19.89 94.61,19.69 94.21,19.29C92.42,17.5 91.87,15.94 91.96,14.44C92.05,12.97 92.77,11.64 93.53,10.21C94.04,9.25 94.6,8.22 94.78,7.07C94.96,5.93 94.79,4.63 93.88,3.06C93.6,2.57 93.54,2.01 93.68,1.51C93.82,1 94.15,0.55 94.64,0.27C95.13,-0.01 95.69,-0.07 96.19,0.07C96.69,0.21 97.15,0.54 97.43,1.03C98.9,3.57 99.2,5.66 98.94,7.47C98.68,9.27 97.89,10.76 97.15,12.14C96.73,12.93 96.33,13.67 96.25,14.36C96.17,15.01 96.38,15.66 97.11,16.39ZM41.16,19.3C40.76,19.7 40.23,19.9 39.71,19.9C39.18,19.9 38.66,19.7 38.26,19.3C37.86,18.9 37.66,18.37 37.66,17.85C37.66,17.32 37.86,16.8 38.26,16.4C39.72,14.94 39.03,13.65 38.22,12.15C37.48,10.76 36.68,9.28 36.43,7.47C36.17,5.65 36.47,3.56 37.94,1.02C38.22,0.53 38.68,0.2 39.19,0.07C39.7,-0.06 40.25,-0.01 40.74,0.28C41.23,0.56 41.56,1.02 41.69,1.53C41.82,2.04 41.77,2.59 41.48,3.08C39.68,6.2 40.83,8.35 41.83,10.22C42.6,11.65 43.31,12.98 43.4,14.45C43.5,15.95 42.94,17.51 41.16,19.3Z" style="fill:rgb(190,186,155);fill-rule:nonzero;stroke:rgb(190,186,155);stroke-width:0.15px;"/>
                </g>
            </g>
        </g>
    </g>
</svg>
