<?xml version="1.0" encoding="UTF-8" standalone="no"?>
<!DOCTYPE svg PUBLIC "-//W3C//DTD SVG 1.1//EN" "http://www.w3.org/Graphics/SVG/1.1/DTD/svg11.dtd">
<svg width="100%" height="100%" viewBox="0 0 200 320" version="1.1" xmlns="http://www.w3.org/2000/svg" xmlns:xlink="http://www.w3.org/1999/xlink" xml:space="preserve" xmlns:serif="http://www.serif.com/" style="fill-rule:evenodd;clip-rule:evenodd;stroke-linejoin:round;stroke-miterlimit:2;">
    <g>
        <path d="M88.75,116.13C90.37,116.96 92.29,116.82 93.77,115.76L110.39,103.24C112.92,101.43 113.7,98 112.2,95.27L99.28,72.52C99.22,72.42 99.25,72.29 99.35,72.22L113.52,61.87L131.27,93.82C131.44,94.13 131.35,94.51 131.07,94.71L116.13,105.2C114.69,106.21 113.88,107.87 113.97,109.64C114.06,111.4 115.04,112.97 116.58,113.83C127.66,119.99 129.57,125.57 129.65,135.74L129.65,167.32C129.65,170.21 131.18,172.9 133.65,174.34C135.34,175.34 137.29,176.26 139.45,177.09L129.89,186.33C128.44,187.73 128.18,189.91 129.26,191.62C130.04,192.85 131.36,193.58 132.8,193.58C133.31,193.58 133.82,193.49 134.31,193.3C156.14,185.02 174.24,169.09 185.28,148.45C196.78,126.94 199.63,101.64 193.29,77.21C189.13,61.17 180.92,46.31 169.49,34.08C169.49,34.08 167.49,31.97 166.57,31.09C154.92,19.61 140.97,11.5 125.97,7.49C113.55,3.8 103.09,3.82 90.56,4.5C86.14,4.74 86.26,7.29 86.26,9.04L86.13,111.83C86.13,113.66 87.13,115.3 88.75,116.13ZM130.17,80.76L120.54,63.42C135.11,69.51 148.53,78.34 160.16,89.66C160.16,89.69 160.17,89.73 160.17,89.76C156.85,91.76 153.61,93.92 150.46,96.23C150.53,96.18 150.61,96.12 150.68,96.06C144.45,90.24 137.57,85.11 130.17,80.76ZM131.97,100.65L134.16,99.11C136.71,97.32 137.49,93.92 135.98,91.2L134.93,89.31C139.14,92.23 143.15,95.43 146.91,98.9C147.68,98.29 141.94,102.9 138.5,106.1C138.52,106.08 138.54,106.07 138.55,106.05C136.44,104.16 134.24,102.36 131.97,100.65ZM128.73,116.17C126.51,113.81 123.55,111.57 119.6,109.34L127.96,103.47C130.46,105.3 132.87,107.24 135.18,109.29C135.22,109.25 135.25,109.22 135.29,109.19C135.16,109.32 135.03,109.44 134.91,109.56C132.76,111.7 130.71,113.91 128.73,116.17ZM180.53,145.91C173.69,158.7 163.85,169.66 152.04,177.87C157.88,160.03 169.83,144.94 185.41,135.08C184.03,138.78 182.4,142.4 180.53,145.91ZM187.62,128.38C167.27,139.49 151.96,158.73 146.07,181.7C143.49,183.21 140.84,184.62 138.12,185.87L146.36,177.9C147.05,177.24 147.33,176.25 147.1,175.32C146.87,174.39 146.16,173.65 145.25,173.38C142.44,172.55 139.99,171.58 137.89,170.51C146.87,145.41 166.06,125.12 190.43,114.67C189.85,119.32 188.91,123.9 187.62,128.38ZM190.97,109.42C165.61,119.53 145.31,139.71 135.03,164.99L135.03,141.66C148.3,121.51 167.93,105.91 191.04,97.74C191.26,101.65 191.24,105.55 190.97,109.42ZM190.68,92.93C168.24,100.59 148.88,114.95 134.99,133.61C134.8,128.28 133.96,123.88 131.61,119.95C133.71,117.51 135.9,115.14 138.2,112.84C152.64,98.4 169.96,87.87 188.85,81.77C189.68,85.48 190.29,89.21 190.68,92.93ZM187.7,77.25C179.77,79.79 172.11,83.1 164.8,87.11L164.8,75.34L182.7,63.41C184.73,67.88 186.4,72.51 187.7,77.25ZM180.66,59.18L164.8,69.75L164.8,59.85L176.4,51.78C177.94,54.18 179.36,56.65 180.66,59.18ZM168.65,41.22C170.48,43.38 172.21,45.6 173.83,47.9L164.81,54.17L164.81,44.14L168.65,41.22ZM91.67,9.47C101.58,8.45 111.72,9.27 121.65,11.86C123.07,12.22 123.8,12.47 124.57,12.68C128.66,13.9 132.71,15.41 136.69,17.24C146.32,21.65 155.03,27.54 162.65,34.78C163.11,35.23 163.58,35.68 164.04,36.15C164.55,36.67 165.05,37.21 165.54,37.74L162.39,40.12L152.56,34.18C151.46,33.51 150.03,33.87 149.37,34.97C148.7,36.07 149.06,37.5 150.16,38.16L160.15,44.2L160.15,54.68L120.93,34.17C119.79,33.58 118.39,34.01 117.79,35.15C117.19,36.29 117.64,37.69 118.77,38.29L160.15,59.92L160.15,69.82L144.66,60.45C143.56,59.78 142.13,60.14 141.47,61.24C140.8,62.34 141.16,63.77 142.26,64.43L160.16,75.25L160.16,83.25C140.84,65.65 117.15,54.4 91.62,50.52L91.67,9.47ZM91.6,55.23C97.28,56.12 102.86,57.4 108.32,59.04L96.61,67.54C94.95,67.17 93.27,66.83 91.59,66.53L91.6,55.23ZM91.58,71.27C92.36,71.41 93.14,71.55 93.91,71.71C93.77,72.85 93.97,74.04 94.56,75.11L99.86,84.44C97.14,83.64 94.37,82.96 91.57,82.39L91.58,71.27ZM91.55,87.12C95.55,87.98 99.45,89.09 103.25,90.43L107.47,97.86C107.66,98.2 107.56,98.63 107.23,98.87L102.88,102.15C99.21,100.68 95.42,99.47 91.53,98.52L91.55,87.12ZM91.53,103.31C93.9,103.92 96.22,104.63 98.5,105.45L91.52,110.72L91.53,103.31Z" style="fill:rgb(36,22,20);fill-rule:nonzero;"/>
        <path d="M71.14,195.67C71.59,195.82 72.05,195.89 72.5,195.89C74.04,195.89 75.46,195.05 76.22,193.6C77.2,191.72 76.7,189.53 75.01,188.25L65.04,180.75C67.13,178.49 68.23,175.2 68.18,171.14L68.11,15.47C68.11,14.05 66.96,12.9 65.54,12.9C64.86,12.9 63.91,13.25 63.67,13.36C46.16,20.98 31.25,33.08 20.55,48.33C9.34,64.31 3.41,82.97 3.41,102.29C3.41,144.93 30.63,182.46 71.14,195.67ZM63.05,171.17C63.08,173.76 62.52,177.11 59.69,178.38C58.86,178.75 58.29,179.53 58.18,180.44C58.08,181.34 58.46,182.24 59.19,182.78L66.2,188.06C60.23,185.69 54.56,182.73 49.27,179.2C51.58,171.73 56.54,165.41 63.04,161.33L63.05,171.17ZM63.04,155.97C54.84,160.28 48.45,167.56 45.31,176.38C43.15,174.76 41.05,173.05 39.03,171.24C38.67,170.91 38.3,170.59 37.94,170.26C37.91,170.23 37.87,170.19 37.84,170.16C37.36,169.71 36.9,169.23 36.43,168.77C41.42,156.98 51.06,147.62 63.02,142.97L63.04,155.97ZM63,77.24L45.33,66.15C46.14,64.21 46.7,62.15 46.96,60.01L62.99,59.84L63,77.24ZM62.98,19.31L63,55.19L47.05,55.36C46.83,52.7 46.15,50.15 45.09,47.8L59.14,40.36C60.28,39.76 60.71,38.35 60.11,37.22C59.51,36.08 58.1,35.65 56.96,36.25L42.75,43.78C41.01,41.39 38.83,39.34 36.29,37.77C44,30.26 53.01,24.01 62.98,19.31ZM24.75,51.28C27.24,47.73 29.97,44.37 32.92,41.2C39.29,44.63 43.26,51.75 42.35,59.4C41.77,64.24 39.35,68.56 35.54,71.56C31.77,74.53 27.07,75.84 22.32,75.27C19.18,74.89 16.33,73.71 13.93,71.96C16.59,64.7 20.21,57.76 24.75,51.28ZM8.79,95.83C8.82,95.45 8.85,95.08 8.88,94.7C8.92,94.28 8.96,93.87 9,93.46C9.43,89.31 10.13,85.21 11.11,81.19C11.21,80.79 11.31,80.39 11.41,80C11.55,79.46 11.69,78.92 11.84,78.39C12.01,77.78 12.22,77.17 12.41,76.56C15.11,78.27 18.21,79.43 21.57,79.86L22.37,95.6C22.43,96.84 23.46,97.81 24.69,97.81L24.81,97.81C26.09,97.75 27.08,96.65 27.02,95.37L26.24,79.99C28.94,79.78 31.57,79.08 34.02,77.92L41.68,91.26C42.11,92.01 42.89,92.43 43.7,92.43C44.09,92.43 44.49,92.33 44.86,92.12C45.97,91.48 46.36,90.06 45.72,88.94L38.01,75.51C38.14,75.41 38.29,75.32 38.42,75.21C40.25,73.77 41.82,72.1 43.1,70.24L63.01,82.74L63.02,102.28C55.94,103.75 43.69,108.82 44.1,108.63C32.89,103.59 20.98,100.15 8.65,98.42C8.68,97.55 8.73,96.69 8.79,95.83ZM8.56,103.09C19,104.6 29.13,107.39 38.76,111.38C34.61,113.72 27.28,119.16 27.42,119.05C21.59,117.06 15.56,115.53 9.36,114.48C8.87,110.74 8.6,106.94 8.56,103.09ZM10.13,119.36C14.61,120.18 19,121.25 23.28,122.59C23.36,122.52 16.67,129.11 13.7,132.89C12.17,128.51 10.98,123.99 10.13,119.36ZM15.64,138.02C26.95,122.55 43.68,111.29 63.01,107.04L63.02,119.44C45.62,123.99 30.92,135.3 21.9,150.38C19.53,146.43 17.42,142.31 15.64,138.02ZM63.02,124.28L63.03,138.01C49.74,142.66 38.89,152.53 32.96,165.17C29.97,161.91 27.23,158.44 24.74,154.79C32.81,140.08 46.57,128.93 63.02,124.28Z" style="fill:rgb(36,22,20);fill-rule:nonzero;"/>
        <path d="M87.12,179.93L91.4,183.21C91.74,183.47 91.8,183.82 91.81,184C91.82,184.22 91.74,184.48 91.41,184.86L68.75,212.11C68.27,212.67 67.9,213.25 67.86,213.97C67.82,214.69 68.06,215.38 68.54,215.92C69.05,216.49 69.78,216.82 70.55,216.82C71.21,216.82 71.93,216.63 72.37,216.11L95,188.87C96.26,187.36 97.25,185.76 97.19,183.82C97.13,181.89 96.21,180.1 94.67,178.93L91.44,176.46L91.44,140.74C91.44,139.66 91.98,138.65 92.88,138.05L96.81,135.43C103.37,137.89 106.31,142.98 106.05,151.44L106.05,183.78C106.05,186.59 107.42,189.23 109.7,190.83L119.65,197.95C120.86,198.81 122.54,198.54 123.41,197.33C124.27,196.12 124,194.44 122.79,193.57L112.81,186.43C111.94,185.82 111.43,184.83 111.43,183.77L111.43,151.56C111.77,140.18 106.98,132.89 97.2,129.87C96.42,129.63 95.59,129.75 94.91,130.2L89.87,133.56C87.47,135.16 86.03,137.84 86.03,140.73L86.03,177.79C86.06,178.63 86.46,179.43 87.12,179.93Z" style="fill:rgb(36,22,20);fill-rule:nonzero;"/>
        <path d="M61.44,232.81C63.05,232.81 64.48,233.28 65.72,234.22C66.35,234.7 67.23,234.63 67.8,234.09C68.53,233.4 68.49,232.21 67.69,231.6C65.97,230.29 63.75,229.6 61.26,229.6C55.2,229.6 50.7,233.85 50.7,239.74C50.7,245.63 55.21,249.88 61.24,249.88C63.75,249.88 65.98,249.19 67.7,247.88C68.5,247.27 68.54,246.09 67.82,245.4L67.81,245.39C67.23,244.84 66.34,244.77 65.71,245.26C64.47,246.21 63.04,246.68 61.44,246.68C57.36,246.68 54.4,243.81 54.4,239.75C54.4,235.68 57.35,232.81 61.44,232.81Z" style="fill:rgb(36,22,20);fill-rule:nonzero;"/>
        <path d="M88.28,249.6C89.29,249.6 90.11,248.78 90.11,247.77L90.11,231.71C90.11,230.7 89.29,229.88 88.28,229.88C87.27,229.88 86.45,230.7 86.45,231.71L86.45,237.5C86.45,237.78 86.22,238.02 85.93,238.02L76.76,238.02C76.48,238.02 76.24,237.79 76.24,237.5L76.24,231.71C76.24,230.7 75.42,229.88 74.41,229.88C73.4,229.88 72.58,230.7 72.58,231.71L72.58,247.77C72.58,248.78 73.4,249.6 74.41,249.6C75.42,249.6 76.24,248.78 76.24,247.77L76.24,241.67C76.24,241.39 76.47,241.15 76.76,241.15L85.93,241.15C86.21,241.15 86.45,241.38 86.45,241.67L86.45,247.77C86.45,248.78 87.27,249.6 88.28,249.6Z" style="fill:rgb(36,22,20);fill-rule:nonzero;"/>
        <path d="M103.3,229.88C102.2,229.88 101.21,230.52 100.76,231.53L93.52,247.62C93.1,248.55 93.78,249.61 94.81,249.61C95.78,249.61 96.65,249.03 97.03,248.14L98.04,245.76C98.23,245.33 98.65,245.04 99.12,245.04L107.43,245.04C107.9,245.04 108.33,245.32 108.51,245.75L109.54,248.13C109.93,249.02 110.81,249.6 111.78,249.6C112.82,249.6 113.52,248.52 113.09,247.57L105.85,231.52C105.39,230.52 104.39,229.88 103.3,229.88ZM106.3,242.16L100.27,242.16C99.94,242.16 99.73,241.83 99.85,241.53L102.85,234.51C103.01,234.14 103.53,234.14 103.68,234.51L106.71,241.53C106.84,241.82 106.62,242.16 106.3,242.16Z" style="fill:rgb(36,22,20);fill-rule:nonzero;"/>
        <path d="M121.07,249.6L121.63,249.6C122.49,249.6 123.18,248.91 123.18,248.05L123.18,234.16C123.18,233.51 123.71,232.98 124.36,232.98L128.17,232.98C129.03,232.98 129.72,232.29 129.72,231.43C129.72,230.57 129.03,229.88 128.17,229.88L114.54,229.88C113.68,229.88 112.99,230.57 112.99,231.43C112.99,232.29 113.68,232.98 114.54,232.98L118.46,232.98C119.05,232.98 119.52,233.46 119.52,234.04L119.52,248.05C119.52,248.9 120.21,249.6 121.07,249.6Z" style="fill:rgb(36,22,20);fill-rule:nonzero;"/>
        <path d="M130.88,249.6C131.85,249.6 132.72,249.02 133.1,248.13L134.11,245.75C134.3,245.32 134.72,245.03 135.19,245.03L143.5,245.03C143.97,245.03 144.4,245.31 144.58,245.74L145.61,248.12C146,249.01 146.88,249.59 147.85,249.59C148.89,249.59 149.59,248.51 149.16,247.56L141.92,231.51C141.47,230.51 140.47,229.87 139.38,229.87C138.28,229.87 137.29,230.51 136.84,231.52L129.6,247.61C129.18,248.54 129.86,249.6 130.88,249.6ZM135.93,241.53L138.93,234.51C139.09,234.14 139.61,234.14 139.76,234.51L142.79,241.53C142.92,241.83 142.7,242.16 142.37,242.16L136.34,242.16C136.02,242.16 135.8,241.83 135.93,241.53Z" style="fill:rgb(36,22,20);fill-rule:nonzero;"/>
        <path d="M42.08,259.13C40.83,259.13 39.72,259.93 39.32,261.12L32.89,280.34C32.74,280.8 32.09,280.8 31.94,280.34L25.73,261.56C25.25,260.12 23.9,259.14 22.38,259.14C20.87,259.14 19.53,260.1 19.04,261.53L12.68,280.22C12.52,280.68 11.88,280.67 11.73,280.21L5.49,261.14C5.1,259.94 3.98,259.14 2.73,259.14L2.28,259.14C0.73,259.14 -0.37,260.66 0.12,262.13L8.02,285.97C8.57,287.63 10.12,288.74 11.86,288.74L11.92,288.74C13.65,288.74 15.19,287.64 15.75,285.99L21.79,268.22C21.94,267.77 22.58,267.77 22.73,268.22L28.66,285.97C29.21,287.62 30.76,288.74 32.5,288.74C34.24,288.74 35.79,287.62 36.34,285.97L44.24,262.13C44.73,260.65 43.63,259.13 42.08,259.13Z" style="fill:rgb(36,22,20);fill-rule:nonzero;"/>
        <path d="M86.15,285.09L76.24,272.79C76.05,272.55 76.06,272.21 76.27,271.98L84.74,262.96C86.1,261.51 85.07,259.13 83.08,259.13C82.49,259.13 81.93,259.37 81.52,259.79L68.49,273.31C68.14,273.68 67.52,273.43 67.52,272.92L67.52,261.87C67.52,260.35 66.29,259.13 64.76,259.13L64.69,259.13C63.22,259.13 62.02,260.32 62.02,261.8L62.02,285.99C62.02,287.51 63.25,288.74 64.77,288.74C66.29,288.74 67.52,287.51 67.52,285.99L67.52,282.39C67.52,281.6 67.83,280.85 68.38,280.28L71.49,277.08C71.88,276.68 72.53,276.7 72.89,277.13L81.55,287.4C82.26,288.24 83.3,288.73 84.4,288.73C86.29,288.75 87.33,286.56 86.15,285.09Z" style="fill:rgb(36,22,20);fill-rule:nonzero;"/>
        <path d="M121.58,273.94C121.58,265.14 114.81,258.71 105.63,258.71C96.45,258.71 89.68,265.18 89.68,273.94C89.68,282.7 96.45,289.17 105.63,289.17C114.81,289.17 121.58,282.74 121.58,273.94ZM95.23,273.94C95.23,267.89 99.67,263.53 105.64,263.53C111.6,263.53 116.05,267.89 116.05,273.94C116.05,279.99 111.61,284.35 105.64,284.35C99.67,284.35 95.23,279.99 95.23,273.94Z" style="fill:rgb(36,22,20);fill-rule:nonzero;"/>
        <path d="M133,265.05L133,286.42C133,287.7 134.04,288.75 135.33,288.75L136.18,288.75C137.46,288.75 138.51,287.71 138.51,286.42L138.51,265.05C138.51,264.35 139.08,263.78 139.78,263.78L146,263.78C147.28,263.78 148.33,262.74 148.33,261.45C148.33,260.17 147.29,259.12 146,259.12L125.53,259.12C124.25,259.12 123.2,260.16 123.2,261.45C123.2,262.73 124.24,263.78 125.53,263.78L131.75,263.78C132.43,263.79 133,264.35 133,265.05Z" style="fill:rgb(36,22,20);fill-rule:nonzero;"/>
        <path d="M171.11,284.09L159.16,284.09C158.5,284.09 157.96,283.55 157.96,282.89L157.96,261.46C157.96,260.17 156.92,259.13 155.63,259.13L154.78,259.13C153.49,259.13 152.45,260.17 152.45,261.46L152.45,286.44C152.45,287.71 153.48,288.74 154.75,288.74L171.1,288.74C172.39,288.74 173.43,287.7 173.43,286.41C173.44,285.13 172.4,284.09 171.11,284.09Z" style="fill:rgb(36,22,20);fill-rule:nonzero;"/>
        <path d="M197.74,284.13L183.84,284.13C183.54,284.13 183.29,283.89 183.29,283.58L183.29,276.51C183.29,276.21 183.53,275.96 183.84,275.96L195.33,275.96C196.58,275.96 197.59,274.95 197.59,273.7C197.59,272.45 196.58,271.44 195.33,271.44L183.84,271.44C183.54,271.44 183.29,271.2 183.29,270.89L183.29,264.29C183.29,263.99 183.53,263.74 183.84,263.74L197.15,263.74C198.4,263.74 199.41,262.73 199.41,261.48L199.41,261.4C199.41,260.15 198.4,259.14 197.15,259.14L179.42,259.14C178.52,259.14 177.8,259.87 177.8,260.76L177.8,287.12C177.8,288.02 178.53,288.74 179.42,288.74L197.74,288.74C198.99,288.74 200,287.73 200,286.48L200,286.4C200,285.15 198.99,284.13 197.74,284.13Z" style="fill:rgb(36,22,20);fill-rule:nonzero;"/>
        <path d="M74.02,304.62L76.29,304.62L76.29,313.7L78.28,313.7L78.28,302.95L74.02,302.95L74.02,304.62Z" style="fill:rgb(36,22,20);fill-rule:nonzero;"/>
        <path d="M92,308.05C92.88,307.57 93.37,306.81 93.37,305.79C93.37,303.95 91.74,302.8 89.35,302.8C86.97,302.8 85.36,303.95 85.36,305.79C85.36,306.8 85.84,307.57 86.7,308.05C85.59,308.56 84.98,309.43 84.98,310.61C84.98,312.61 86.68,313.85 89.36,313.85C92.04,313.85 93.77,312.61 93.77,310.61C93.75,309.43 93.12,308.55 92,308.05ZM89.34,304.36C90.57,304.36 91.4,304.91 91.4,305.88C91.4,306.8 90.62,307.38 89.34,307.38C88.08,307.38 87.31,306.8 87.31,305.88C87.31,304.92 88.11,304.36 89.34,304.36ZM89.34,312.29C87.87,312.29 86.97,311.64 86.97,310.55C86.97,309.49 87.86,308.83 89.34,308.83C90.81,308.83 91.74,309.49 91.74,310.55C91.73,311.64 90.81,312.29 89.34,312.29Z" style="fill:rgb(36,22,20);fill-rule:nonzero;"/>
        <path d="M106.61,308.05C107.49,307.57 107.98,306.81 107.98,305.79C107.98,303.95 106.35,302.8 103.96,302.8C101.58,302.8 99.97,303.95 99.97,305.79C99.97,306.8 100.45,307.57 101.31,308.05C100.2,308.56 99.59,309.43 99.59,310.61C99.59,312.61 101.29,313.85 103.97,313.85C106.64,313.85 108.38,312.61 108.38,310.61C108.36,309.43 107.73,308.55 106.61,308.05ZM103.96,304.36C105.19,304.36 106.02,304.91 106.02,305.88C106.02,306.8 105.24,307.38 103.96,307.38C102.7,307.38 101.93,306.8 101.93,305.88C101.93,304.92 102.73,304.36 103.96,304.36ZM103.96,312.29C102.49,312.29 101.6,311.64 101.6,310.55C101.6,309.49 102.49,308.83 103.96,308.83C105.43,308.83 106.36,309.49 106.36,310.55C106.35,311.64 105.43,312.29 103.96,312.29Z" style="fill:rgb(36,22,20);fill-rule:nonzero;"/>
        <path d="M118.74,302.8C116.19,302.8 114.26,304.8 114.26,308.33C114.26,311.86 116.2,313.86 118.74,313.86C121.3,313.86 123.24,311.86 123.24,308.33C123.24,304.8 121.31,302.8 118.74,302.8ZM118.74,312.12C117.28,312.12 116.27,310.92 116.27,308.33C116.27,305.73 117.28,304.54 118.74,304.54C120.21,304.54 121.23,305.74 121.23,308.33C121.23,310.92 120.22,312.12 118.74,312.12Z" style="fill:rgb(36,22,20);fill-rule:nonzero;"/>
        <path d="M149.36,307.88L129.19,307.88C129.02,307.88 128.88,308.02 128.88,308.19C128.88,308.36 129.02,308.5 129.19,308.5L149.36,308.5C149.53,308.5 149.67,308.36 149.67,308.19C149.67,308.02 149.53,307.88 149.36,307.88Z" style="fill:rgb(36,22,20);fill-rule:nonzero;"/>
        <path d="M69.31,307.88L50.64,307.88C50.47,307.88 50.33,308.02 50.33,308.19C50.33,308.36 50.47,308.5 50.64,308.5L69.31,308.5C69.48,308.5 69.62,308.36 69.62,308.19C69.62,308.02 69.48,307.88 69.31,307.88Z" style="fill:rgb(36,22,20);fill-rule:nonzero;"/>
    </g>
</svg>
