<?xml version="1.0" encoding="utf-8"?>
<!-- Generator: Adobe Illustrator 28.3.0, SVG Export Plug-In . SVG Version: 6.00 Build 0)  -->
<svg version="1.1" id="Layer_1" xmlns="http://www.w3.org/2000/svg" xmlns:xlink="http://www.w3.org/1999/xlink" x="0px" y="0px"
	 viewBox="0 0 200 320" style="enable-background:new 0 0 200 320;" xml:space="preserve">
<style type="text/css">
	.st0{fill:#472415;}
</style>
<g>
	<path class="st0" d="M88.75,116.13c1.62,0.83,3.54,0.69,5.02-0.37l16.62-12.52c2.53-1.81,3.31-5.24,1.81-7.97L99.28,72.52
		c-0.06-0.1-0.03-0.23,0.07-0.3l14.17-10.35l17.75,31.95c0.17,0.31,0.08,0.69-0.2,0.89l-14.94,10.49c-1.44,1.01-2.25,2.67-2.16,4.44
		c0.09,1.76,1.07,3.33,2.61,4.19c11.08,6.16,12.99,11.74,13.07,21.91v31.58c0,2.89,1.53,5.58,4,7.02c1.69,1,3.64,1.92,5.8,2.75
		l-9.56,9.24c-1.45,1.4-1.71,3.58-0.63,5.29c0.78,1.23,2.1,1.96,3.54,1.96c0.51,0,1.02-0.09,1.51-0.28
		c21.83-8.28,39.93-24.21,50.97-44.85c11.5-21.51,14.35-46.81,8.01-71.24c-4.16-16.04-12.37-30.9-23.8-43.13c0,0-2-2.11-2.92-2.99
		c-11.65-11.48-25.6-19.59-40.6-23.6C113.55,3.8,103.09,3.82,90.56,4.5c-4.42,0.24-4.3,2.79-4.3,4.54l-0.13,102.79
		C86.13,113.66,87.13,115.3,88.75,116.13z M130.17,80.76l-9.63-17.34c14.57,6.09,27.99,14.92,39.62,26.24c0,0.03,0.01,0.07,0.01,0.1
		c-3.32,2-6.56,4.16-9.71,6.47c0.07-0.05,0.15-0.11,0.22-0.17C144.45,90.24,137.57,85.11,130.17,80.76z M131.97,100.65l2.19-1.54
		c2.55-1.79,3.33-5.19,1.82-7.91l-1.05-1.89c4.21,2.92,8.22,6.12,11.98,9.59c0.77-0.61-4.97,4-8.41,7.2
		c0.02-0.02,0.04-0.03,0.05-0.05C136.44,104.16,134.24,102.36,131.97,100.65z M128.73,116.17c-2.22-2.36-5.18-4.6-9.13-6.83
		l8.36-5.87c2.5,1.83,4.91,3.77,7.22,5.82c0.04-0.04,0.07-0.07,0.11-0.1c-0.13,0.13-0.26,0.25-0.38,0.37
		C132.76,111.7,130.71,113.91,128.73,116.17z M180.53,145.91c-6.84,12.79-16.68,23.75-28.49,31.96
		c5.84-17.84,17.79-32.93,33.37-42.79C184.03,138.78,182.4,142.4,180.53,145.91z M187.62,128.38
		c-20.35,11.11-35.66,30.35-41.55,53.32c-2.58,1.51-5.23,2.92-7.95,4.17l8.24-7.97c0.69-0.66,0.97-1.65,0.74-2.58
		c-0.23-0.93-0.94-1.67-1.85-1.94c-2.81-0.83-5.26-1.8-7.36-2.87c8.98-25.1,28.17-45.39,52.54-55.84
		C189.85,119.32,188.91,123.9,187.62,128.38z M190.97,109.42c-25.36,10.11-45.66,30.29-55.94,55.57v-23.33
		c13.27-20.15,32.9-35.75,56.01-43.92C191.26,101.65,191.24,105.55,190.97,109.42z M190.68,92.93
		c-22.44,7.66-41.8,22.02-55.69,40.68c-0.19-5.33-1.03-9.73-3.38-13.66c2.1-2.44,4.29-4.81,6.59-7.11
		c14.44-14.44,31.76-24.97,50.65-31.07C189.68,85.48,190.29,89.21,190.68,92.93z M187.7,77.25c-7.93,2.54-15.59,5.85-22.9,9.86
		V75.34l17.9-11.93C184.73,67.88,186.4,72.51,187.7,77.25z M180.66,59.18L164.8,69.75v-9.9l11.6-8.07
		C177.94,54.18,179.36,56.65,180.66,59.18z M168.65,41.22c1.83,2.16,3.56,4.38,5.18,6.68l-9.02,6.27V44.14L168.65,41.22z
		 M91.67,9.47c9.91-1.02,20.05-0.2,29.98,2.39c1.42,0.36,2.15,0.61,2.92,0.82c4.09,1.22,8.14,2.73,12.12,4.56
		c9.63,4.41,18.34,10.3,25.96,17.54c0.46,0.45,0.93,0.9,1.39,1.37c0.51,0.52,1.01,1.06,1.5,1.59l-3.15,2.38l-9.83-5.94
		c-1.1-0.67-2.53-0.31-3.19,0.79c-0.67,1.1-0.31,2.53,0.79,3.19l9.99,6.04v10.48l-39.22-20.51c-1.14-0.59-2.54-0.16-3.14,0.98
		c-0.6,1.14-0.15,2.54,0.98,3.14l41.38,21.63v9.9l-15.49-9.37c-1.1-0.67-2.53-0.31-3.19,0.79c-0.67,1.1-0.31,2.53,0.79,3.19
		l17.9,10.82v8c-19.32-17.6-43.01-28.85-68.54-32.73L91.67,9.47z M91.6,55.23c5.68,0.89,11.26,2.17,16.72,3.81l-11.71,8.5
		c-1.66-0.37-3.34-0.71-5.02-1.01L91.6,55.23z M91.58,71.27c0.78,0.14,1.56,0.28,2.33,0.44c-0.14,1.14,0.06,2.33,0.65,3.4l5.3,9.33
		c-2.72-0.8-5.49-1.48-8.29-2.05L91.58,71.27z M91.55,87.12c4,0.86,7.9,1.97,11.7,3.31l4.22,7.43c0.19,0.34,0.09,0.77-0.24,1.01
		l-4.35,3.28c-3.67-1.47-7.46-2.68-11.35-3.63L91.55,87.12z M91.53,103.31c2.37,0.61,4.69,1.32,6.97,2.14l-6.98,5.27L91.53,103.31z"
		/>
	<path class="st0" d="M71.14,195.67c0.45,0.15,0.91,0.22,1.36,0.22c1.54,0,2.96-0.84,3.72-2.29c0.98-1.88,0.48-4.07-1.21-5.35
		l-9.97-7.5c2.09-2.26,3.19-5.55,3.14-9.61L68.11,15.47c0-1.42-1.15-2.57-2.57-2.57c0,0,0,0,0,0c-0.68,0-1.63,0.35-1.87,0.46
		c-17.51,7.62-32.42,19.72-43.12,34.97C9.34,64.31,3.41,82.97,3.41,102.29C3.41,144.93,30.63,182.46,71.14,195.67z M63.05,171.17
		c0.03,2.59-0.53,5.94-3.36,7.21c-0.83,0.37-1.4,1.15-1.51,2.06c-0.1,0.9,0.28,1.8,1.01,2.34l7.01,5.28
		c-5.97-2.37-11.64-5.33-16.93-8.86c2.31-7.47,7.27-13.79,13.77-17.87L63.05,171.17z M63.04,155.97L63.04,155.97
		c-8.2,4.31-14.59,11.59-17.73,20.41c-2.16-1.62-4.26-3.33-6.28-5.14c-0.36-0.33-0.73-0.65-1.09-0.98c-0.03-0.03-0.07-0.07-0.1-0.1
		c-0.48-0.45-0.94-0.93-1.41-1.39c4.99-11.79,14.63-21.15,26.59-25.8L63.04,155.97z M63,77.24L45.33,66.15
		c0.81-1.94,1.37-4,1.63-6.14l16.03-0.17L63,77.24z M62.98,19.31l0.02,35.88l-15.95,0.17c-0.22-2.66-0.9-5.21-1.96-7.56l14.05-7.44
		c1.14-0.6,1.57-2.01,0.97-3.14c-0.6-1.14-2.01-1.57-3.15-0.97l-14.21,7.53c-1.74-2.39-3.92-4.44-6.46-6.01
		C44,30.26,53.01,24.01,62.98,19.31z M24.75,51.28c2.49-3.55,5.22-6.91,8.17-10.08c6.37,3.43,10.34,10.55,9.43,18.2
		c-0.58,4.84-3,9.16-6.81,12.16c-3.77,2.97-8.47,4.28-13.22,3.71c-3.14-0.38-5.99-1.56-8.39-3.31
		C16.59,64.7,20.21,57.76,24.75,51.28z M8.79,95.83c0.03-0.38,0.06-0.75,0.09-1.13c0.04-0.42,0.08-0.83,0.12-1.24
		c0.43-4.15,1.13-8.25,2.11-12.27c0.1-0.4,0.2-0.8,0.3-1.19c0.14-0.54,0.28-1.08,0.43-1.61c0.17-0.61,0.38-1.22,0.57-1.83
		c2.7,1.71,5.8,2.87,9.16,3.3l0.8,15.74c0.06,1.24,1.09,2.21,2.32,2.21c0.04,0,0.08,0,0.12,0c1.28-0.06,2.27-1.16,2.21-2.44
		l-0.78-15.38c2.7-0.21,5.33-0.91,7.78-2.07l7.66,13.34c0.43,0.75,1.21,1.17,2.02,1.17c0.39,0,0.79-0.1,1.16-0.31
		c1.11-0.64,1.5-2.06,0.86-3.18l-7.71-13.43c0.13-0.1,0.28-0.19,0.41-0.3c1.83-1.44,3.4-3.11,4.68-4.97l19.91,12.5l0.01,19.54
		c-7.08,1.47-19.33,6.54-18.92,6.35c-11.21-5.04-23.12-8.48-35.45-10.21C8.68,97.55,8.73,96.69,8.79,95.83z M8.56,103.09
		c10.44,1.51,20.57,4.3,30.2,8.29c-4.15,2.34-11.48,7.78-11.34,7.67c-5.83-1.99-11.86-3.52-18.06-4.57
		C8.87,110.74,8.6,106.94,8.56,103.09z M10.13,119.36c4.48,0.82,8.87,1.89,13.15,3.23c0.08-0.07-6.61,6.52-9.58,10.3
		C12.17,128.51,10.98,123.99,10.13,119.36z M15.64,138.02c11.31-15.47,28.04-26.73,47.37-30.98l0.01,12.4
		c-17.4,4.55-32.1,15.86-41.12,30.94C19.53,146.43,17.42,142.31,15.64,138.02z M63.02,124.28l0.01,13.73
		c-13.29,4.65-24.14,14.52-30.07,27.16c-2.99-3.26-5.73-6.73-8.22-10.38C32.81,140.08,46.57,128.93,63.02,124.28z"/>
	<path class="st0" d="M87.12,179.93l4.28,3.28c0.34,0.26,0.4,0.61,0.41,0.79c0.01,0.22-0.07,0.48-0.4,0.86l-22.66,27.25
		c-0.48,0.56-0.85,1.14-0.89,1.86c-0.04,0.72,0.2,1.41,0.68,1.95c0.51,0.57,1.24,0.9,2.01,0.9c0.66,0,1.38-0.19,1.82-0.71L95,188.87
		c1.26-1.51,2.25-3.11,2.19-5.05c-0.06-1.93-0.98-3.72-2.52-4.89l-3.23-2.47v-35.72c0-1.08,0.54-2.09,1.44-2.69l3.93-2.62
		c6.56,2.46,9.5,7.55,9.24,16.01l0,32.34c0,2.81,1.37,5.45,3.65,7.05l9.95,7.12c1.21,0.86,2.89,0.59,3.76-0.62
		c0.86-1.21,0.59-2.89-0.62-3.76l-9.98-7.14c-0.87-0.61-1.38-1.6-1.38-2.66v-32.21c0.34-11.38-4.45-18.67-14.23-21.69
		c-0.78-0.24-1.61-0.12-2.29,0.33l-5.04,3.36c-2.4,1.6-3.84,4.28-3.84,7.17v37.06C86.06,178.63,86.46,179.43,87.12,179.93z"/>
	<path class="st0" d="M61.44,232.81c1.61,0,3.04,0.47,4.28,1.41c0.63,0.48,1.51,0.41,2.08-0.13c0.73-0.69,0.69-1.88-0.11-2.49
		c-1.72-1.31-3.94-2-6.43-2c-6.06,0-10.56,4.25-10.56,10.14c0,5.89,4.51,10.14,10.54,10.14c2.51,0,4.74-0.69,6.46-2
		c0.8-0.61,0.84-1.79,0.12-2.48l-0.01-0.01c-0.58-0.55-1.47-0.62-2.1-0.13c-1.24,0.95-2.67,1.42-4.27,1.42
		c-4.08,0-7.04-2.87-7.04-6.93C54.4,235.68,57.35,232.81,61.44,232.81z"/>
	<path class="st0" d="M88.28,249.6c1.01,0,1.83-0.82,1.83-1.83v-16.06c0-1.01-0.82-1.83-1.83-1.83c-1.01,0-1.83,0.82-1.83,1.83v5.79
		c0,0.28-0.23,0.52-0.52,0.52h-9.17c-0.28,0-0.52-0.23-0.52-0.52v-5.79c0-1.01-0.82-1.83-1.83-1.83c-1.01,0-1.83,0.82-1.83,1.83
		v16.06c0,1.01,0.82,1.83,1.83,1.83c1.01,0,1.83-0.82,1.83-1.83v-6.1c0-0.28,0.23-0.52,0.52-0.52h9.17c0.28,0,0.52,0.23,0.52,0.52
		v6.1C86.45,248.78,87.27,249.6,88.28,249.6z"/>
	<path class="st0" d="M103.3,229.88c-1.1,0-2.09,0.64-2.54,1.65l-7.24,16.09c-0.42,0.93,0.26,1.99,1.29,1.99
		c0.97,0,1.84-0.58,2.22-1.47l1.01-2.38c0.19-0.43,0.61-0.72,1.08-0.72h8.31c0.47,0,0.9,0.28,1.08,0.71l1.03,2.38
		c0.39,0.89,1.27,1.47,2.24,1.47c1.04,0,1.74-1.08,1.31-2.03l-7.24-16.05C105.39,230.52,104.39,229.88,103.3,229.88z M106.3,242.16
		h-6.03c-0.33,0-0.54-0.33-0.42-0.63l3-7.02c0.16-0.37,0.68-0.37,0.83,0l3.03,7.02C106.84,241.82,106.62,242.16,106.3,242.16z"/>
	<path class="st0" d="M121.07,249.6h0.56c0.86,0,1.55-0.69,1.55-1.55v-13.89c0-0.65,0.53-1.18,1.18-1.18h3.81
		c0.86,0,1.55-0.69,1.55-1.55c0-0.86-0.69-1.55-1.55-1.55h-13.63c-0.86,0-1.55,0.69-1.55,1.55c0,0.86,0.69,1.55,1.55,1.55h3.92
		c0.59,0,1.06,0.48,1.06,1.06v14.01C119.52,248.9,120.21,249.6,121.07,249.6z"/>
	<path class="st0" d="M130.88,249.6c0.97,0,1.84-0.58,2.22-1.47l1.01-2.38c0.19-0.43,0.61-0.72,1.08-0.72h8.31
		c0.47,0,0.9,0.28,1.08,0.71l1.03,2.38c0.39,0.89,1.27,1.47,2.24,1.47c1.04,0,1.74-1.08,1.31-2.03l-7.24-16.05
		c-0.45-1-1.45-1.64-2.54-1.64c-1.1,0-2.09,0.64-2.54,1.65l-7.24,16.09C129.18,248.54,129.86,249.6,130.88,249.6z M135.93,241.53
		l3-7.02c0.16-0.37,0.68-0.37,0.83,0l3.03,7.02c0.13,0.3-0.09,0.63-0.42,0.63h-6.03C136.02,242.16,135.8,241.83,135.93,241.53z"/>
	<path class="st0" d="M42.08,259.13c-1.25,0-2.36,0.8-2.76,1.99l-6.43,19.22c-0.15,0.46-0.8,0.46-0.95,0l-6.21-18.78
		c-0.48-1.44-1.83-2.42-3.35-2.42c-1.51,0-2.85,0.96-3.34,2.39l-6.36,18.69c-0.16,0.46-0.8,0.45-0.95-0.01l-6.24-19.07
		c-0.39-1.2-1.51-2-2.76-2H2.28c-1.55,0-2.65,1.52-2.16,2.99l7.9,23.84c0.55,1.66,2.1,2.77,3.84,2.77h0.06
		c1.73,0,3.27-1.1,3.83-2.75l6.04-17.77c0.15-0.45,0.79-0.45,0.94,0l5.93,17.75c0.55,1.65,2.1,2.77,3.84,2.77
		c1.74,0,3.29-1.12,3.84-2.77l7.9-23.84C44.73,260.65,43.63,259.13,42.08,259.13z"/>
	<path class="st0" d="M86.15,285.09l-9.91-12.3c-0.19-0.24-0.18-0.58,0.03-0.81l8.47-9.02c1.36-1.45,0.33-3.83-1.66-3.83
		c-0.59,0-1.15,0.24-1.56,0.66l-13.03,13.52c-0.35,0.37-0.97,0.12-0.97-0.39c0-2.5,0-7.8,0-11.05c0-1.52-1.23-2.74-2.76-2.74h-0.07
		c-1.47,0-2.67,1.19-2.67,2.67l0,24.19c0,1.52,1.23,2.75,2.75,2.75h0c1.52,0,2.75-1.23,2.75-2.75v-3.6c0-0.79,0.31-1.54,0.86-2.11
		l3.11-3.2c0.39-0.4,1.04-0.38,1.4,0.05l8.66,10.27c0.71,0.84,1.75,1.33,2.85,1.33C86.29,288.75,87.33,286.56,86.15,285.09z"/>
	<path class="st0" d="M121.58,273.94c0-8.8-6.77-15.23-15.95-15.23c-9.18,0-15.95,6.47-15.95,15.23s6.77,15.23,15.95,15.23
		C114.81,289.17,121.58,282.74,121.58,273.94z M95.23,273.94c0-6.05,4.44-10.41,10.41-10.41c5.96,0,10.41,4.36,10.41,10.41
		c0,6.05-4.44,10.41-10.41,10.41C99.67,284.35,95.23,279.99,95.23,273.94z"/>
	<path class="st0" d="M133,265.05v21.37c0,1.28,1.04,2.33,2.33,2.33h0.85c1.28,0,2.33-1.04,2.33-2.33v-21.37
		c0-0.7,0.57-1.27,1.27-1.27h6.22c1.28,0,2.33-1.04,2.33-2.33c0-1.28-1.04-2.33-2.33-2.33h-20.47c-1.28,0-2.33,1.04-2.33,2.33
		c0,1.28,1.04,2.33,2.33,2.33h6.22C132.43,263.79,133,264.35,133,265.05z"/>
	<path class="st0" d="M171.11,284.09h-11.95c-0.66,0-1.2-0.54-1.2-1.2v-21.43c0-1.29-1.04-2.33-2.33-2.33h-0.85
		c-1.29,0-2.33,1.04-2.33,2.33v24.98c0,1.27,1.03,2.3,2.3,2.3h16.35c1.29,0,2.33-1.04,2.33-2.33v0
		C173.44,285.13,172.4,284.09,171.11,284.09z"/>
	<path class="st0" d="M197.74,284.13h-13.9c-0.3,0-0.55-0.24-0.55-0.55v-7.07c0-0.3,0.24-0.55,0.55-0.55h11.49
		c1.25,0,2.26-1.01,2.26-2.26c0-1.25-1.01-2.26-2.26-2.26h-11.49c-0.3,0-0.55-0.24-0.55-0.55v-6.6c0-0.3,0.24-0.55,0.55-0.55h13.31
		c1.25,0,2.26-1.01,2.26-2.26v-0.08c0-1.25-1.01-2.26-2.26-2.26h-17.73c-0.9,0-1.62,0.73-1.62,1.62v26.36c0,0.9,0.73,1.62,1.62,1.62
		h18.32c1.25,0,2.26-1.01,2.26-2.26v-0.08C200,285.15,198.99,284.13,197.74,284.13z"/>
	<polygon class="st0" points="74.02,304.62 76.29,304.62 76.29,313.7 78.28,313.7 78.28,302.95 74.02,302.95 	"/>
	<path class="st0" d="M92,308.05c0.88-0.48,1.37-1.24,1.37-2.26c0-1.84-1.63-2.99-4.02-2.99c-2.38,0-3.99,1.15-3.99,2.99
		c0,1.01,0.48,1.78,1.34,2.26c-1.11,0.51-1.72,1.38-1.72,2.56c0,2,1.7,3.24,4.38,3.24s4.41-1.24,4.41-3.24
		C93.75,309.43,93.12,308.55,92,308.05z M89.34,304.36c1.23,0,2.06,0.55,2.06,1.52c0,0.92-0.78,1.5-2.06,1.5
		c-1.26,0-2.03-0.58-2.03-1.5C87.31,304.92,88.11,304.36,89.34,304.36z M89.34,312.29c-1.47,0-2.37-0.65-2.37-1.74
		c0-1.06,0.89-1.72,2.37-1.72c1.47,0,2.4,0.66,2.4,1.72C91.73,311.64,90.81,312.29,89.34,312.29z"/>
	<path class="st0" d="M106.61,308.05c0.88-0.48,1.37-1.24,1.37-2.26c0-1.84-1.63-2.99-4.02-2.99c-2.38,0-3.99,1.15-3.99,2.99
		c0,1.01,0.48,1.78,1.34,2.26c-1.11,0.51-1.72,1.38-1.72,2.56c0,2,1.7,3.24,4.38,3.24c2.67,0,4.41-1.24,4.41-3.24
		C108.36,309.43,107.73,308.55,106.61,308.05z M103.96,304.36c1.23,0,2.06,0.55,2.06,1.52c0,0.92-0.78,1.5-2.06,1.5
		c-1.26,0-2.03-0.58-2.03-1.5C101.93,304.92,102.73,304.36,103.96,304.36z M103.96,312.29c-1.47,0-2.36-0.65-2.36-1.74
		c0-1.06,0.89-1.72,2.36-1.72c1.47,0,2.4,0.66,2.4,1.72C106.35,311.64,105.43,312.29,103.96,312.29z"/>
	<path class="st0" d="M118.74,302.8c-2.55,0-4.48,2-4.48,5.53s1.94,5.53,4.48,5.53c2.56,0,4.5-2,4.5-5.53S121.31,302.8,118.74,302.8
		z M118.74,312.12c-1.46,0-2.47-1.2-2.47-3.79c0-2.6,1.01-3.79,2.47-3.79c1.47,0,2.49,1.2,2.49,3.79
		C121.23,310.92,120.22,312.12,118.74,312.12z"/>
	<path class="st0" d="M149.36,307.88h-20.17c-0.17,0-0.31,0.14-0.31,0.31c0,0.17,0.14,0.31,0.31,0.31h20.17
		c0.17,0,0.31-0.14,0.31-0.31C149.67,308.02,149.53,307.88,149.36,307.88z"/>
	<path class="st0" d="M69.31,307.88H50.64c-0.17,0-0.31,0.14-0.31,0.31c0,0.17,0.14,0.31,0.31,0.31h18.67
		c0.17,0,0.31-0.14,0.31-0.31C69.62,308.02,69.48,307.88,69.31,307.88z"/>
</g>
</svg>
