<?xml version="1.0" encoding="UTF-8" standalone="no"?>
<!DOCTYPE svg PUBLIC "-//W3C//DTD SVG 1.1//EN" "http://www.w3.org/Graphics/SVG/1.1/DTD/svg11.dtd">
<svg width="100%" height="100%" viewBox="0 0 800 800" version="1.1" xmlns="http://www.w3.org/2000/svg" xmlns:xlink="http://www.w3.org/1999/xlink" xml:space="preserve" xmlns:serif="http://www.serif.com/" style="fill-rule:evenodd;clip-rule:evenodd;stroke-linejoin:round;stroke-miterlimit:2;">
    <g transform="matrix(1,0,0,1,400,400)">
        <g transform="matrix(1,0,0,1,-400,-400)">
            <g transform="matrix(33.333333,0,0,33.333333,0,0)">
                <path d="M5,18.125L4.304,17.846C4.152,18.226 4.332,18.658 4.71,18.817L5,18.125ZM20,18.125L20.29,18.817C20.672,18.656 20.851,18.218 20.692,17.836L20,18.125ZM8.75,9.375L9.333,8.904C9.179,8.712 8.94,8.609 8.695,8.627C8.449,8.645 8.228,8.783 8.104,8.995L8.75,9.375ZM11.25,14.188L10.533,14.409C10.631,14.726 10.926,14.941 11.258,14.938C11.59,14.934 11.88,14.713 11.971,14.394L11.25,14.188ZM12.5,5L11.829,5.335L12.5,5ZM10,11.125L9.352,11.503L10,11.125ZM16.667,11.125L17.317,10.751L16.667,11.125ZM14.375,13.5L15.036,13.145C14.889,12.873 14.591,12.718 14.284,12.755C13.977,12.793 13.725,13.015 13.648,13.314L14.375,13.5ZM9.219,16L9.918,15.728C9.815,15.465 9.574,15.281 9.293,15.254C9.012,15.226 8.739,15.358 8.587,15.596L9.219,16ZM10.367,18.951L10.332,19.7L10.367,18.951ZM8.75,9.375C8.167,9.846 8.167,9.846 8.167,9.846L8.167,9.846C8.167,9.846 8.167,9.846 8.167,9.846C8.167,9.846 8.189,9.874 8.2,9.888C8.222,9.916 8.255,9.957 8.295,10.009C8.377,10.113 8.49,10.258 8.615,10.426C8.872,10.768 9.162,11.177 9.352,11.503L10.648,10.747C10.413,10.344 10.079,9.878 9.816,9.527C9.682,9.349 9.562,9.194 9.476,9.083C9.432,9.028 9.397,8.984 9.373,8.953C9.36,8.937 9.335,8.905 9.334,8.905C9.334,8.904 9.333,8.904 9.333,8.904C9.333,8.904 9.333,8.904 9.333,8.904C9.333,8.904 9.333,8.904 8.75,9.375ZM9.352,11.503C9.641,11.998 9.935,12.713 10.164,13.332C10.276,13.636 10.369,13.907 10.434,14.102C10.466,14.199 10.492,14.277 10.508,14.33C10.517,14.356 10.523,14.377 10.527,14.39C10.53,14.397 10.533,14.408 10.533,14.408C10.533,14.409 10.533,14.409 10.533,14.409L10.534,14.409L10.533,14.409C10.533,14.409 10.533,14.409 11.25,14.188C11.967,13.966 11.967,13.966 11.966,13.966L11.966,13.966C11.966,13.966 11.966,13.966 11.966,13.965C11.966,13.965 11.966,13.964 11.966,13.964C11.966,13.963 11.961,13.948 11.959,13.941C11.954,13.925 11.947,13.902 11.937,13.873C11.919,13.815 11.892,13.732 11.857,13.628C11.789,13.422 11.69,13.135 11.571,12.812C11.337,12.179 11.006,11.362 10.648,10.747L9.352,11.503ZM11.971,14.394C12.418,12.829 12.401,13.468 13.23,9.986L11.77,9.639C10.933,13.157 11.058,12.129 10.529,13.982L11.971,14.394ZM13.23,9.986C13.647,8.234 13.798,7.184 13.748,6.42C13.695,5.598 13.401,5.125 13.171,4.665L11.829,5.335C12.099,5.875 12.222,6.058 12.252,6.517C12.285,7.035 12.187,7.891 11.77,9.639L13.23,9.986ZM13.171,4.665C13.172,4.667 13.178,4.68 13.186,4.699C13.19,4.708 13.213,4.763 13.227,4.841C13.233,4.876 13.247,4.969 13.229,5.086C13.21,5.206 13.136,5.451 12.878,5.607C12.635,5.755 12.401,5.717 12.308,5.694C12.208,5.668 12.137,5.628 12.109,5.611C12.048,5.574 12.008,5.538 12,5.531C11.986,5.518 11.977,5.509 11.975,5.506C11.97,5.502 11.972,5.504 11.983,5.517C12.029,5.571 12.12,5.686 12.253,5.864C12.513,6.212 12.9,6.749 13.342,7.381C14.227,8.649 15.309,10.27 16.017,11.499L17.317,10.751C16.576,9.464 15.464,7.799 14.572,6.522C14.124,5.881 13.727,5.33 13.454,4.965C13.32,4.786 13.206,4.639 13.128,4.547C13.108,4.523 13.084,4.496 13.059,4.47C13.055,4.466 12.983,4.386 12.879,4.324C12.848,4.305 12.775,4.264 12.674,4.239C12.579,4.215 12.344,4.177 12.1,4.325C11.841,4.482 11.767,4.728 11.747,4.85C11.728,4.969 11.743,5.063 11.75,5.101C11.772,5.23 11.828,5.333 11.829,5.335L13.171,4.665ZM16.017,11.499C16.75,12.774 17.571,14.497 18.215,15.916C18.535,16.622 18.809,17.247 19.002,17.696C19.099,17.921 19.175,18.1 19.228,18.224C19.254,18.286 19.274,18.334 19.288,18.366C19.294,18.382 19.299,18.394 19.303,18.402C19.305,18.406 19.307,18.413 19.308,18.413C19.308,18.413 19.308,18.413 19.308,18.414C19.308,18.414 19.308,18.414 19.308,18.414L20,18.125C20.692,17.836 20.692,17.836 20.692,17.836C20.692,17.836 20.692,17.836 20.692,17.836C20.692,17.836 20.692,17.836 20.692,17.835C20.692,17.835 20.688,17.827 20.687,17.823C20.683,17.814 20.678,17.801 20.671,17.785C20.657,17.751 20.636,17.702 20.609,17.639C20.556,17.513 20.478,17.33 20.38,17.102C20.183,16.647 19.906,16.013 19.581,15.296C18.934,13.869 18.088,12.092 17.317,10.751L16.017,11.499ZM5,18.125L5.696,18.404C5.696,18.404 5.696,18.404 5.696,18.404C5.696,18.404 5.696,18.403 5.696,18.403C5.697,18.403 5.697,18.403 5.697,18.402C5.697,18.402 5.716,18.355 5.725,18.331C5.745,18.282 5.774,18.21 5.813,18.113C5.891,17.919 6.008,17.628 6.164,17.242C6.476,16.469 6.945,15.314 7.569,13.784L6.181,13.217C5.555,14.749 5.086,15.906 4.773,16.68C4.617,17.067 4.5,17.358 4.421,17.553C4.382,17.651 4.353,17.724 4.333,17.773C4.323,17.797 4.307,17.839 4.306,17.842C4.305,17.843 4.304,17.846 4.304,17.846C4.304,17.846 4.304,17.846 4.304,17.846C4.304,17.846 4.304,17.846 4.304,17.846C4.304,17.846 4.304,17.846 5,18.125ZM7.569,13.784C8.189,12.264 8.652,11.247 8.957,10.615C9.109,10.298 9.222,10.078 9.296,9.94C9.332,9.871 9.359,9.822 9.376,9.792C9.384,9.777 9.39,9.766 9.394,9.76C9.395,9.757 9.396,9.755 9.397,9.755C9.397,9.754 9.397,9.754 9.397,9.754C9.397,9.754 9.397,9.755 9.397,9.755C9.397,9.755 9.396,9.755 8.75,9.375C8.104,8.995 8.103,8.995 8.103,8.995C8.103,8.995 8.095,9.01 8.092,9.015C8.085,9.026 8.077,9.042 8.066,9.061C8.043,9.101 8.012,9.16 7.97,9.238C7.887,9.394 7.766,9.631 7.606,9.963C7.286,10.628 6.811,11.673 6.181,13.217L7.569,13.784ZM12.5,19.75C12.662,19.75 12.82,19.749 12.976,19.748L12.962,18.248C12.811,18.249 12.657,18.25 12.5,18.25L12.5,19.75ZM13.695,19.184L15.102,13.686L13.648,13.314L12.242,18.812L13.695,19.184ZM12.976,19.748C14.771,19.731 16.192,19.617 17.284,19.476L17.091,17.988C16.062,18.122 14.702,18.231 12.962,18.248L12.976,19.748ZM17.284,19.476C18.304,19.343 19.038,19.186 19.527,19.057C19.771,18.993 19.953,18.937 20.079,18.894C20.142,18.873 20.19,18.855 20.226,18.842C20.243,18.835 20.257,18.83 20.268,18.826C20.273,18.823 20.289,18.817 20.29,18.817C20.29,18.817 20.29,18.817 20.29,18.817C20.29,18.817 20.29,18.817 20,18.125C19.71,17.433 19.71,17.433 19.71,17.433C19.71,17.433 19.71,17.433 19.71,17.433C19.711,17.433 19.711,17.433 19.711,17.433C19.711,17.433 19.712,17.433 19.712,17.433C19.713,17.432 19.713,17.432 19.713,17.432C19.714,17.432 19.714,17.432 19.712,17.432C19.71,17.433 19.704,17.436 19.695,17.439C19.677,17.446 19.645,17.457 19.599,17.473C19.507,17.504 19.358,17.551 19.146,17.607C18.723,17.718 18.051,17.863 17.091,17.988L17.284,19.476ZM13.714,13.855L16.527,19.087L17.848,18.377L15.036,13.145L13.714,13.855ZM5,18.125C4.71,18.817 4.71,18.817 4.71,18.817C4.71,18.817 4.71,18.817 4.71,18.817C4.711,18.817 4.711,18.817 4.711,18.817C4.712,18.817 4.712,18.818 4.713,18.818C4.714,18.819 4.725,18.823 4.73,18.825C4.74,18.829 4.753,18.834 4.769,18.84C4.801,18.852 4.845,18.868 4.901,18.887C5.014,18.926 5.178,18.978 5.396,19.037C5.832,19.155 6.487,19.302 7.394,19.432L7.606,17.947C6.757,17.825 6.162,17.69 5.787,17.589C5.6,17.538 5.468,17.496 5.386,17.468C5.346,17.454 5.318,17.444 5.302,17.438C5.294,17.435 5.289,17.433 5.287,17.432C5.286,17.432 5.286,17.432 5.287,17.432C5.287,17.432 5.287,17.432 5.288,17.433C5.288,17.433 5.289,17.433 5.289,17.433C5.289,17.433 5.289,17.433 5.29,17.433C5.29,17.433 5.29,17.433 5.29,17.433C5.29,17.433 5.29,17.433 5,18.125ZM8.132,19.093L9.851,16.404L8.587,15.596L6.868,18.285L8.132,19.093ZM7.394,19.432C8.178,19.544 9.15,19.643 10.332,19.7L10.403,18.202C9.266,18.147 8.341,18.052 7.606,17.947L7.394,19.432ZM10.332,19.7C10.988,19.732 11.71,19.75 12.5,19.75L12.5,18.25C11.733,18.25 11.036,18.232 10.403,18.202L10.332,19.7ZM8.52,16.272L9.669,19.223L11.066,18.679L9.918,15.728L8.52,16.272Z" style="fill:rgb(190,186,155);fill-rule:nonzero;stroke:rgb(190,186,155);stroke-width:0.03px;"/>
            </g>
        </g>
    </g>
</svg>
