<?xml version="1.0" encoding="UTF-8" standalone="no"?>
<!DOCTYPE svg PUBLIC "-//W3C//DTD SVG 1.1//EN" "http://www.w3.org/Graphics/SVG/1.1/DTD/svg11.dtd">
<svg width="100%" height="100%" viewBox="0 0 800 800" version="1.1" xmlns="http://www.w3.org/2000/svg" xmlns:xlink="http://www.w3.org/1999/xlink" xml:space="preserve" xmlns:serif="http://www.serif.com/" style="fill-rule:evenodd;clip-rule:evenodd;stroke-linejoin:round;stroke-miterlimit:2;">
    <g transform="matrix(1.5625,0,0,1.5625,0,0)">
        <path d="M436.212,149.261L436.212,73.629C436.204,53.684 420.056,37.526 400.104,37.518L111.899,37.518C91.948,37.526 75.8,53.685 75.792,73.629L75.792,149.261L0,339.112L0,452.547C0.019,464.671 9.803,474.459 21.938,474.482L490.061,474.482C502.196,474.459 511.981,464.671 512,452.547L512,339.112L436.212,149.261ZM99.866,73.629C99.877,66.991 105.261,61.6 111.899,61.592L400.104,61.592C406.742,61.6 412.126,66.991 412.138,73.629L412.138,150.131L381.97,150.131L381.97,122.059C381.966,102.671 366.258,86.959 346.862,86.951L300.555,86.951C281.159,86.959 265.458,102.671 265.451,122.059L265.451,150.131L246.549,150.131L246.549,122.059C246.541,102.671 230.841,86.959 211.445,86.951L165.138,86.951C145.742,86.959 130.034,102.671 130.03,122.059L130.03,150.131L99.866,150.131L99.866,73.629ZM365.921,122.059L365.921,150.131L281.501,150.131L281.501,122.059C281.52,111.543 290.038,103.016 300.555,103L346.862,103C357.386,103.017 365.901,111.543 365.921,122.059ZM230.5,122.059L230.5,150.131L146.08,150.131L146.08,122.059C146.099,111.543 154.614,103.016 165.139,103L211.446,103C221.961,103.017 230.48,111.543 230.5,122.059ZM94.957,166.18L417.047,166.18L425.761,188.013L86.242,188.013L94.957,166.18ZM79.836,204.063L432.169,204.063L483.8,333.406L28.2,333.406L79.836,204.063ZM487.926,450.408L24.074,450.408L24.074,349.456L487.925,349.456L487.925,450.408L487.926,450.408Z" style="fill:rgb(190,186,155);fill-rule:nonzero;stroke:rgb(190,186,155);stroke-width:0.64px;"/>
    </g>
</svg>
