<?xml version="1.0" encoding="UTF-8" standalone="no"?>
<!DOCTYPE svg PUBLIC "-//W3C//DTD SVG 1.1//EN" "http://www.w3.org/Graphics/SVG/1.1/DTD/svg11.dtd">
<svg width="100%" height="100%" viewBox="0 0 800 800" version="1.1" xmlns="http://www.w3.org/2000/svg" xmlns:xlink="http://www.w3.org/1999/xlink" xml:space="preserve" xmlns:serif="http://www.serif.com/" style="fill-rule:evenodd;clip-rule:evenodd;stroke-linejoin:round;stroke-miterlimit:2;">
    <g transform="matrix(1,0,0,1,400,400)">
        <g transform="matrix(1,0,0,1,-400,-400)">
            <g transform="matrix(33.333333,0,0,33.333333,0,0)">
                <path d="M12.958,1.713C12.831,1.29 12.442,1 12,1C11.558,1 11.169,1.29 11.042,1.713L10.656,3L4,3C2.343,3 1,4.343 1,6L1,16C1,17.657 2.343,19 4,19L5.856,19L5.042,21.713C4.883,22.242 5.184,22.799 5.713,22.958C6.242,23.116 6.799,22.816 6.958,22.287L7.944,19L16.056,19L17.042,22.287C17.201,22.816 17.758,23.116 18.287,22.958C18.816,22.799 19.116,22.242 18.958,21.713L18.144,19L20,19C21.657,19 23,17.657 23,16L23,6C23,4.343 21.657,3 20,3L13.344,3L12.958,1.713ZM3,6C3,5.448 3.448,5 4,5L20,5C20.552,5 21,5.448 21,6L21,16C21,16.552 20.552,17 20,17L4,17C3.448,17 3,16.552 3,16L3,6ZM10.894,6.829C9.565,6.164 8,7.131 8,8.618L8,13.382C8,14.869 9.565,15.836 10.894,15.171L15.658,12.789C17.133,12.052 17.133,9.948 15.658,9.211L10.894,6.829ZM10,8.618L14.764,11L10,13.382L10,8.618Z" style="fill:rgb(190,186,155);stroke:rgb(190,186,155);stroke-width:0.03px;"/>
            </g>
        </g>
    </g>
</svg>
