<?xml version="1.0" encoding="UTF-8" standalone="no"?>
<!DOCTYPE svg PUBLIC "-//W3C//DTD SVG 1.1//EN" "http://www.w3.org/Graphics/SVG/1.1/DTD/svg11.dtd">
<svg width="100%" height="100%" viewBox="0 0 800 800" version="1.1" xmlns="http://www.w3.org/2000/svg" xmlns:xlink="http://www.w3.org/1999/xlink" xml:space="preserve" xmlns:serif="http://www.serif.com/" style="fill-rule:evenodd;clip-rule:evenodd;stroke-linejoin:round;stroke-miterlimit:2;">
    <g transform="matrix(1,0,0,1,400,400)">
        <g transform="matrix(1,0,0,1,-400,-400)">
            <clipPath id="_clip1">
                <rect x="0" y="0" width="800" height="800"/>
            </clipPath>
            <g clip-path="url(#_clip1)">
                <g transform="matrix(1.5625,0,0,1.5625,0,0)">
                    <path d="M127.923,267.983L127.939,267.983C124.432,267.481 120.941,267.24 117.505,267.24C81.34,267.248 49.828,293.829 44.603,330.629C44.107,334.12 43.867,337.603 43.867,341.039C43.867,377.203 70.456,408.716 107.248,413.957C110.746,414.445 114.222,414.692 117.667,414.692C153.831,414.685 185.343,388.103 190.576,351.304L182.727,350.189L190.576,351.296C191.071,347.798 191.312,344.314 191.312,340.87C191.312,304.712 164.722,273.208 127.923,267.983ZM174.878,349.074C170.807,377.962 145.998,398.839 117.667,398.832C114.965,398.832 112.233,398.646 109.461,398.259C80.596,394.179 59.719,369.371 59.719,341.039C59.719,338.338 59.905,335.605 60.3,332.857C64.371,303.969 89.18,283.092 117.504,283.092C120.205,283.092 122.938,283.278 125.694,283.68L125.701,283.68C154.59,287.752 175.459,312.553 175.459,340.868C175.458,343.571 175.272,346.311 174.878,349.074Z" style="fill:rgb(190,186,155);fill-rule:nonzero;stroke:rgb(190,186,155);stroke-width:0.64px;"/>
                    <path d="M510.823,324.475C510.158,319.784 509.137,315.248 507.951,310.782L508.648,310.519C508.641,310.495 506.101,303.761 502.138,293.002C496.186,276.87 487.067,251.76 478.646,227.144C470.232,202.575 462.499,178.316 459.472,164.638L459.449,164.552L459.426,164.467C451.987,134.255 430.932,110.305 403.886,98.33C403.678,97.487 403.476,96.673 403.321,95.962L403.306,95.884L403.275,95.776C397.129,70.866 374.735,53.458 349.26,53.442C346.659,53.442 344.036,53.628 341.395,54C313.599,57.948 293.527,81.727 293.527,109.044C293.527,109.794 293.542,110.553 293.573,111.304L293.573,111.398L293.581,111.475C293.721,113.759 293.899,116.623 294.093,119.711C277.202,137.104 266.907,160.543 266.381,185.855L245.605,185.855C245.087,160.543 234.791,137.104 217.901,119.711C218.094,116.622 218.272,113.758 218.411,111.475L218.419,111.39L218.419,111.297C218.45,110.546 218.466,109.795 218.466,109.045C218.466,81.728 198.394,57.949 170.59,54.001L170.621,54.001C167.959,53.613 165.319,53.443 162.733,53.443C137.258,53.451 114.872,70.876 108.734,95.785L108.711,95.879L108.695,95.933C108.533,96.653 108.331,97.481 108.115,98.332C81.069,110.299 60.006,134.257 52.568,164.477L52.544,164.554L52.521,164.64C50.509,173.727 46.391,187.614 41.382,203.064C33.874,226.271 24.353,253.17 16.72,274.224C12.912,284.759 9.56,293.839 7.168,300.279C4.784,306.719 3.352,310.504 3.352,310.504L4.049,310.775C2.865,315.249 1.843,319.785 1.177,324.476C0.388,330.055 0,335.605 0,341.102C0,398.762 42.396,449.053 101.109,457.382C106.69,458.171 112.248,458.558 117.743,458.55C175.396,458.55 225.671,416.154 234.001,357.45C234.613,353.115 234.915,348.811 235.046,344.538L235.805,344.584L235.805,344.576C235.805,344.576 235.82,344.337 235.843,343.98L276.149,343.98C276.172,344.337 276.188,344.576 276.188,344.576L276.947,344.53C277.078,348.81 277.38,353.114 277.991,357.45C286.32,416.155 336.596,458.55 394.248,458.558C399.744,458.558 405.302,458.171 410.883,457.382C469.597,449.053 511.992,398.762 512,341.102C512,335.605 511.613,330.055 510.823,324.475ZM162.733,69.295C164.599,69.295 166.472,69.419 168.345,69.689L168.949,69.775L168.376,69.697C187.426,72.375 201.266,88.197 202.396,106.651C190.483,98.632 176.62,93.097 161.44,90.945C156.788,90.287 152.167,89.962 147.6,89.969C140.471,89.969 133.512,90.828 126.747,92.315C133.187,78.507 147.174,69.28 162.733,69.295ZM218.303,355.228C211.128,406.022 167.563,442.705 117.744,442.697C112.991,442.697 108.177,442.364 103.324,441.683C52.544,434.515 15.854,390.927 15.854,341.101C15.854,336.347 16.187,331.541 16.876,326.703C24.052,275.924 67.632,239.233 117.459,239.233C122.211,239.233 127.011,239.558 131.857,240.255C182.635,247.431 219.327,291.003 219.327,340.83C219.325,345.575 218.992,350.375 218.303,355.228ZM229.782,191.095C228.559,210.717 226.113,248.786 223.969,281.97C223.799,284.648 223.628,287.226 223.458,289.827C206.971,255.761 174.367,230.27 134.084,224.557C128.496,223.76 122.946,223.381 117.458,223.381C89.065,223.381 62.483,233.7 41.793,251.147C46.84,236.788 51.987,221.787 56.469,207.946C61.524,192.326 65.703,178.33 67.956,168.252C76.958,131.577 110.104,105.808 147.6,105.823C151.424,105.823 155.302,106.086 159.211,106.644C200.229,112.434 229.853,147.631 229.845,187.852C229.844,188.927 229.828,190.004 229.782,191.095ZM236.873,328.128C238.793,298.396 242.857,235.627 245.001,201.707L266.992,201.707C269.136,235.627 273.2,298.396 275.12,328.128L236.873,328.128ZM343.617,69.697C345.529,69.426 347.403,69.295 349.26,69.295C364.819,69.28 378.799,78.507 385.254,92.309C378.489,90.83 371.522,89.963 364.393,89.963C359.826,89.963 355.205,90.288 350.553,90.946C335.374,93.098 321.511,98.632 309.597,106.652C310.727,88.198 324.559,72.376 343.617,69.697ZM282.21,191.095C282.164,190.011 282.141,188.927 282.141,187.852C282.141,147.631 311.765,112.434 352.782,106.644C356.691,106.086 360.561,105.823 364.393,105.823C401.858,105.808 434.965,131.53 444.006,168.151C446.266,178.237 450.454,192.271 455.524,207.945C459.998,221.771 465.145,236.787 470.193,251.138C449.502,233.699 422.928,223.38 394.543,223.38C389.055,223.38 383.505,223.759 377.908,224.556C337.626,230.269 305.022,255.759 288.526,289.826C286.282,254.979 283.542,212.297 282.21,191.095ZM408.669,441.684C403.816,442.365 399.001,442.698 394.248,442.706C344.43,442.706 300.865,406.023 293.689,355.229C293,350.384 292.667,345.576 292.667,340.831C292.667,291.004 329.35,247.432 380.144,240.256C384.982,239.559 389.789,239.234 394.542,239.234C444.361,239.234 487.949,275.925 495.125,326.704C495.814,331.542 496.147,336.348 496.147,341.102C496.147,390.928 459.456,434.516 408.669,441.684Z" style="fill:rgb(190,186,155);fill-rule:nonzero;stroke:rgb(190,186,155);stroke-width:0.64px;"/>
                    <path d="M394.489,267.24C391.052,267.24 387.561,267.48 384.055,267.983L384.063,267.983C347.271,273.208 320.682,304.713 320.682,340.87C320.682,344.314 320.921,347.798 321.417,351.304C326.642,388.103 358.162,414.685 394.327,414.692C397.771,414.692 401.247,414.445 404.73,413.957C441.544,408.716 468.126,377.203 468.126,341.039C468.126,337.603 467.886,334.119 467.391,330.629C462.166,293.829 430.653,267.24 394.489,267.24ZM402.516,398.259C399.76,398.646 397.02,398.832 394.326,398.832C365.995,398.839 341.186,377.962 337.114,349.074C336.719,346.311 336.534,343.571 336.534,340.869C336.526,312.553 357.403,287.752 386.291,283.681L386.299,283.681C389.047,283.278 391.787,283.093 394.489,283.093C422.82,283.093 447.621,303.97 451.693,332.85C452.08,335.606 452.273,338.346 452.273,341.04C452.273,369.371 431.404,394.179 402.516,398.259Z" style="fill:rgb(190,186,155);fill-rule:nonzero;stroke:rgb(190,186,155);stroke-width:0.64px;"/>
                </g>
            </g>
        </g>
    </g>
</svg>
